<svg xmlns="http://www.w3.org/2000/svg" xmlns:xlink="http://www.w3.org/1999/xlink" width="320" zoomAndPan="magnify" viewBox="0 0 240 89.999999" height="120" preserveAspectRatio="xMidYMid meet" version="1.0"><defs><g/></defs><path fill="#ffffff" d="M 28.542969 28.898438 C 28.378906 28.496094 28.277344 28.074219 28.210938 27.640625 C 28.15625 27.207031 28.140625 26.761719 28.199219 26.3125 C 28.234375 26.089844 28.277344 25.863281 28.347656 25.644531 C 28.367188 25.589844 28.382812 25.535156 28.402344 25.480469 C 28.402344 25.480469 28.472656 25.316406 28.472656 25.316406 C 28.511719 25.207031 28.570312 25.105469 28.625 25 C 28.855469 24.589844 29.183594 24.21875 29.570312 23.9375 C 29.953125 23.652344 30.386719 23.457031 30.828125 23.3125 C 30.828125 23.3125 30.992188 23.261719 30.992188 23.261719 C 30.992188 23.261719 31.074219 23.238281 31.074219 23.238281 C 31.074219 23.238281 31.160156 23.21875 31.160156 23.21875 C 31.160156 23.21875 31.496094 23.144531 31.496094 23.144531 C 31.605469 23.117188 31.71875 23.105469 31.832031 23.089844 C 31.941406 23.074219 32.054688 23.054688 32.167969 23.050781 C 32.390625 23.035156 32.617188 23.007812 32.835938 23.011719 C 32.835938 23.011719 33.171875 23.011719 33.171875 23.011719 C 33.28125 23.011719 33.382812 23.011719 33.488281 23.015625 C 33.910156 23.023438 34.328125 23.035156 34.75 23.046875 C 36.4375 23.101562 38.128906 23.214844 39.820312 23.242188 C 41.511719 23.273438 43.203125 23.242188 44.898438 23.199219 C 44.898438 23.199219 47.433594 23.132812 47.433594 23.132812 C 47.433594 23.132812 49.972656 23.085938 49.972656 23.085938 C 51.664062 23.054688 53.355469 22.988281 55.046875 22.996094 C 55.894531 22.996094 56.742188 23.007812 57.585938 23.03125 C 58.433594 23.054688 59.277344 23.085938 60.125 23.125 C 60.972656 23.164062 61.820312 23.207031 62.664062 23.269531 C 63.511719 23.324219 64.359375 23.394531 65.203125 23.488281 C 65.238281 23.492188 65.257812 23.519531 65.253906 23.550781 C 65.253906 23.578125 65.230469 23.597656 65.207031 23.601562 C 64.359375 23.707031 63.515625 23.785156 62.667969 23.851562 C 61.824219 23.921875 60.976562 23.976562 60.128906 24.027344 C 58.4375 24.121094 56.746094 24.183594 55.054688 24.203125 C 53.359375 24.222656 51.667969 24.167969 49.976562 24.148438 C 49.976562 24.148438 47.4375 24.109375 47.4375 24.109375 C 46.589844 24.09375 45.742188 24.066406 44.898438 24.046875 C 44.898438 24.046875 43.625 24.019531 43.625 24.019531 C 43.625 24.019531 42.992188 24.003906 42.992188 24.003906 C 42.992188 24.003906 42.355469 23.996094 42.355469 23.996094 C 41.511719 23.984375 40.664062 23.976562 39.816406 23.984375 C 38.125 23.996094 36.429688 24.089844 34.734375 24.085938 C 34.308594 24.085938 33.882812 24.074219 33.457031 24.0625 C 33.457031 24.0625 33.140625 24.050781 33.140625 24.050781 C 33.140625 24.050781 32.839844 24.042969 32.839844 24.042969 C 32.636719 24.035156 32.441406 24.046875 32.242188 24.050781 C 32.140625 24.050781 32.046875 24.066406 31.949219 24.074219 C 31.949219 24.074219 31.800781 24.085938 31.800781 24.085938 C 31.75 24.09375 31.703125 24.09375 31.65625 24.105469 C 31.65625 24.105469 31.367188 24.152344 31.367188 24.152344 C 31.367188 24.152344 31.296875 24.164062 31.296875 24.164062 C 31.296875 24.164062 31.226562 24.179688 31.226562 24.179688 C 31.226562 24.179688 31.085938 24.214844 31.085938 24.214844 C 30.714844 24.304688 30.359375 24.441406 30.042969 24.632812 C 29.726562 24.824219 29.449219 25.074219 29.234375 25.382812 C 29.015625 25.6875 28.855469 26.042969 28.746094 26.421875 C 28.542969 27.1875 28.527344 28.039062 28.652344 28.867188 C 28.652344 28.867188 28.652344 28.871094 28.652344 28.871094 C 28.65625 28.902344 28.632812 28.929688 28.601562 28.933594 C 28.578125 28.9375 28.550781 28.921875 28.542969 28.898438 Z M 28.542969 28.898438 " fill-opacity="1" fill-rule="nonzero"/><path fill="#ffffff" d="M 29.082031 67.84375 C 29.195312 68.542969 29.304688 69.242188 29.429688 69.933594 C 29.558594 70.625 29.695312 71.3125 29.867188 71.984375 C 29.953125 72.316406 30.050781 72.648438 30.167969 72.960938 C 30.28125 73.273438 30.417969 73.582031 30.589844 73.808594 C 30.589844 73.808594 30.605469 73.832031 30.605469 73.832031 C 30.609375 73.835938 30.609375 73.835938 30.609375 73.832031 C 30.605469 73.832031 30.605469 73.832031 30.605469 73.832031 C 30.605469 73.828125 30.605469 73.828125 30.605469 73.828125 C 30.605469 73.828125 30.605469 73.832031 30.609375 73.832031 C 30.621094 73.839844 30.636719 73.851562 30.660156 73.863281 C 30.710938 73.886719 30.777344 73.910156 30.847656 73.933594 C 30.992188 73.972656 31.152344 74.007812 31.316406 74.035156 C 31.648438 74.085938 31.992188 74.121094 32.335938 74.144531 C 33.027344 74.195312 33.730469 74.210938 34.433594 74.21875 C 35.132812 74.226562 35.839844 74.21875 36.542969 74.210938 C 37.953125 74.1875 39.363281 74.148438 40.777344 74.097656 C 46.425781 73.902344 52.082031 73.632812 57.753906 73.550781 C 58.464844 73.542969 59.171875 73.535156 59.882812 73.539062 C 60.238281 73.542969 60.59375 73.542969 60.949219 73.550781 C 60.949219 73.550781 62.007812 73.5625 62.007812 73.5625 C 63.417969 73.574219 64.828125 73.570312 66.226562 73.503906 C 66.925781 73.476562 67.625 73.429688 68.316406 73.359375 C 69.007812 73.285156 69.691406 73.191406 70.363281 73.046875 C 71.03125 72.902344 71.6875 72.710938 72.292969 72.433594 C 72.441406 72.363281 72.59375 72.296875 72.734375 72.210938 C 72.808594 72.171875 72.878906 72.132812 72.949219 72.089844 C 72.949219 72.089844 73.15625 71.957031 73.15625 71.957031 C 73.15625 71.957031 73.257812 71.890625 73.257812 71.890625 C 73.257812 71.890625 73.351562 71.816406 73.351562 71.816406 C 73.351562 71.816406 73.542969 71.664062 73.542969 71.664062 C 73.542969 71.664062 73.71875 71.503906 73.71875 71.503906 C 73.71875 71.503906 73.808594 71.421875 73.808594 71.421875 C 73.835938 71.390625 73.863281 71.359375 73.890625 71.332031 C 73.890625 71.332031 74.050781 71.152344 74.050781 71.152344 C 74.050781 71.152344 74.195312 70.960938 74.195312 70.960938 C 74.195312 70.960938 74.265625 70.863281 74.265625 70.863281 C 74.265625 70.863281 74.332031 70.761719 74.332031 70.761719 C 74.332031 70.761719 74.457031 70.558594 74.457031 70.558594 C 74.457031 70.558594 74.566406 70.339844 74.566406 70.339844 C 74.566406 70.339844 74.621094 70.230469 74.621094 70.230469 C 74.636719 70.195312 74.648438 70.15625 74.664062 70.117188 C 74.664062 70.117188 74.753906 69.890625 74.753906 69.890625 C 74.785156 69.816406 74.804688 69.734375 74.828125 69.65625 C 75.019531 69.027344 75.097656 68.351562 75.109375 67.667969 C 75.113281 67.339844 75.085938 67.015625 75.015625 66.703125 C 74.941406 66.390625 74.828125 66.089844 74.667969 65.8125 C 74.511719 65.53125 74.308594 65.277344 74.078125 65.046875 C 73.84375 64.820312 73.582031 64.613281 73.300781 64.4375 C 72.734375 64.078125 72.097656 63.8125 71.441406 63.609375 C 70.78125 63.40625 70.101562 63.269531 69.410156 63.167969 C 68.71875 63.066406 68.023438 63.007812 67.320312 62.976562 C 66.625 62.949219 65.917969 62.949219 65.222656 62.988281 C 65.140625 63.007812 65.058594 62.957031 65.039062 62.875 C 65.035156 62.867188 65.035156 62.863281 65.035156 62.859375 C 65.035156 62.859375 65.03125 62.816406 65.03125 62.816406 C 64.96875 62.324219 64.941406 61.835938 64.921875 61.347656 C 64.90625 60.855469 64.90625 60.367188 64.898438 59.878906 C 64.898438 59.878906 64.875 56.941406 64.875 56.941406 C 64.875 56.941406 64.824219 51.066406 64.824219 51.066406 C 64.800781 47.152344 64.769531 43.234375 64.753906 39.320312 C 64.753906 39.320312 64.644531 15.824219 64.644531 15.824219 C 64.644531 15.570312 64.8125 15.355469 65.042969 15.285156 C 65.136719 15.257812 65.210938 15.238281 65.292969 15.21875 C 65.375 15.195312 65.453125 15.175781 65.535156 15.15625 C 65.695312 15.121094 65.855469 15.085938 66.015625 15.054688 C 66.335938 14.992188 66.660156 14.9375 66.984375 14.898438 C 67.632812 14.8125 68.289062 14.773438 68.949219 14.789062 C 69.609375 14.808594 70.277344 14.878906 70.933594 15.035156 C 71.59375 15.1875 72.242188 15.425781 72.84375 15.769531 C 73.449219 16.113281 73.996094 16.574219 74.441406 17.113281 C 74.667969 17.378906 74.867188 17.667969 75.039062 17.96875 C 75.207031 18.269531 75.363281 18.582031 75.484375 18.898438 C 75.605469 19.21875 75.710938 19.542969 75.789062 19.871094 C 75.871094 20.199219 75.929688 20.527344 75.980469 20.855469 C 76.023438 21.1875 76.058594 21.515625 76.074219 21.847656 C 76.074219 21.847656 76.085938 22.09375 76.085938 22.09375 C 76.085938 22.09375 76.09375 22.328125 76.09375 22.328125 C 76.09375 22.328125 76.105469 22.804688 76.105469 22.804688 C 76.171875 25.328125 76.183594 27.839844 76.1875 30.351562 C 76.191406 32.867188 76.171875 35.378906 76.152344 37.890625 C 76.140625 39.148438 76.132812 40.40625 76.117188 41.660156 C 76.117188 41.660156 76.066406 45.429688 76.066406 45.429688 C 76.035156 47.941406 75.984375 50.453125 75.9375 52.964844 C 75.832031 57.992188 75.707031 63.015625 75.53125 68.039062 C 75.527344 68.070312 75.503906 68.09375 75.472656 68.09375 C 75.441406 68.089844 75.417969 68.066406 75.414062 68.035156 C 75.324219 63.011719 75.269531 57.988281 75.21875 52.960938 C 75.21875 52.960938 75.089844 37.890625 75.089844 37.890625 C 75.089844 37.890625 75.015625 30.359375 75.015625 30.359375 C 75.015625 30.359375 74.96875 26.59375 74.96875 26.59375 C 74.96875 26.59375 74.9375 24.714844 74.9375 24.714844 C 74.929688 24.402344 74.925781 24.089844 74.914062 23.777344 C 74.914062 23.777344 74.890625 22.839844 74.890625 22.839844 C 74.890625 22.839844 74.878906 22.371094 74.878906 22.371094 C 74.878906 22.371094 74.871094 22.136719 74.871094 22.136719 C 74.871094 22.136719 74.859375 21.914062 74.859375 21.914062 C 74.847656 21.613281 74.816406 21.320312 74.777344 21.027344 C 74.695312 20.441406 74.558594 19.871094 74.351562 19.339844 C 74.253906 19.070312 74.128906 18.816406 73.988281 18.570312 C 73.851562 18.324219 73.691406 18.09375 73.515625 17.878906 C 73.164062 17.449219 72.734375 17.085938 72.25 16.804688 C 71.761719 16.519531 71.226562 16.3125 70.660156 16.175781 C 70.097656 16.039062 69.507812 15.96875 68.914062 15.945312 C 68.320312 15.925781 67.71875 15.957031 67.121094 16.027344 C 66.824219 16.0625 66.523438 16.109375 66.230469 16.164062 C 66.082031 16.191406 65.933594 16.222656 65.789062 16.253906 C 65.714844 16.269531 65.640625 16.289062 65.570312 16.304688 C 65.5 16.324219 65.421875 16.34375 65.367188 16.359375 C 65.367188 16.359375 65.765625 15.824219 65.765625 15.824219 C 65.765625 15.824219 65.65625 39.320312 65.65625 39.320312 C 65.640625 43.234375 65.609375 47.152344 65.582031 51.066406 C 65.582031 51.066406 65.535156 56.941406 65.535156 56.941406 C 65.535156 56.941406 65.507812 59.878906 65.507812 59.878906 C 65.503906 60.367188 65.503906 60.855469 65.488281 61.347656 C 65.46875 61.835938 65.441406 62.324219 65.378906 62.816406 C 65.378906 62.816406 65.1875 62.640625 65.1875 62.640625 C 65.1875 62.640625 65.191406 62.640625 65.191406 62.640625 C 65.90625 62.570312 66.617188 62.542969 67.332031 62.542969 C 68.046875 62.546875 68.761719 62.582031 69.476562 62.664062 C 70.1875 62.742188 70.902344 62.867188 71.601562 63.058594 C 72.300781 63.25 72.992188 63.511719 73.636719 63.894531 C 73.957031 64.082031 74.261719 64.308594 74.539062 64.570312 C 74.816406 64.832031 75.066406 65.128906 75.261719 65.460938 C 75.464844 65.792969 75.613281 66.15625 75.710938 66.53125 C 75.808594 66.90625 75.847656 67.292969 75.851562 67.671875 C 75.859375 68.402344 75.789062 69.148438 75.585938 69.878906 C 75.558594 69.96875 75.535156 70.058594 75.503906 70.148438 C 75.503906 70.148438 75.402344 70.417969 75.402344 70.417969 C 75.386719 70.460938 75.371094 70.507812 75.351562 70.550781 C 75.351562 70.550781 75.289062 70.683594 75.289062 70.683594 C 75.289062 70.683594 75.167969 70.941406 75.167969 70.941406 C 75.167969 70.941406 75.019531 71.191406 75.019531 71.191406 C 75.019531 71.191406 74.945312 71.316406 74.945312 71.316406 C 74.945312 71.316406 74.863281 71.433594 74.863281 71.433594 C 74.863281 71.433594 74.691406 71.667969 74.691406 71.667969 C 74.691406 71.667969 74.5 71.890625 74.5 71.890625 C 74.46875 71.925781 74.4375 71.964844 74.40625 72 C 74.40625 72 74.300781 72.097656 74.300781 72.097656 C 74.300781 72.097656 74.09375 72.300781 74.09375 72.300781 C 74.09375 72.300781 73.871094 72.480469 73.871094 72.480469 C 73.871094 72.480469 73.757812 72.574219 73.757812 72.574219 C 73.757812 72.574219 73.640625 72.652344 73.640625 72.652344 C 73.640625 72.652344 73.402344 72.816406 73.402344 72.816406 C 73.324219 72.867188 73.238281 72.910156 73.160156 72.960938 C 72.996094 73.0625 72.828125 73.136719 72.65625 73.222656 C 71.980469 73.542969 71.269531 73.757812 70.558594 73.921875 C 69.847656 74.085938 69.132812 74.195312 68.417969 74.28125 C 67.703125 74.363281 66.988281 74.425781 66.273438 74.464844 C 64.847656 74.542969 63.425781 74.558594 62.003906 74.5625 C 62.003906 74.5625 60.941406 74.558594 60.941406 74.558594 C 60.589844 74.554688 60.238281 74.554688 59.882812 74.558594 C 59.179688 74.5625 58.476562 74.570312 57.769531 74.582031 C 54.949219 74.628906 52.121094 74.742188 49.292969 74.835938 C 46.464844 74.933594 43.636719 75.027344 40.800781 75.078125 C 39.386719 75.105469 37.96875 75.121094 36.546875 75.109375 C 35.835938 75.105469 35.125 75.09375 34.414062 75.070312 C 33.703125 75.042969 32.988281 75.011719 32.269531 74.945312 C 31.910156 74.910156 31.550781 74.867188 31.183594 74.796875 C 31 74.765625 30.8125 74.722656 30.617188 74.660156 C 30.519531 74.628906 30.421875 74.59375 30.3125 74.535156 C 30.257812 74.507812 30.199219 74.472656 30.140625 74.425781 C 30.125 74.414062 30.109375 74.398438 30.09375 74.382812 C 30.09375 74.382812 30.070312 74.363281 30.070312 74.363281 C 30.070312 74.363281 30.046875 74.335938 30.046875 74.335938 C 30.046875 74.335938 30.023438 74.308594 30.023438 74.308594 C 30.015625 74.296875 30.007812 74.289062 30.003906 74.285156 C 30.003906 74.285156 29.984375 74.253906 29.984375 74.253906 C 29.742188 73.902344 29.605469 73.546875 29.492188 73.191406 C 29.378906 72.835938 29.300781 72.480469 29.230469 72.125 C 29.097656 71.414062 29.023438 70.699219 28.980469 69.988281 C 28.941406 69.273438 28.929688 68.5625 28.96875 67.847656 C 28.96875 67.816406 28.996094 67.792969 29.027344 67.792969 C 29.054688 67.796875 29.078125 67.816406 29.082031 67.84375 Z M 29.082031 67.84375 " fill-opacity="1" fill-rule="nonzero"/><path fill="#ffffff" d="M 37.796875 31.074219 C 38.804688 30.980469 39.816406 30.917969 40.828125 30.867188 C 40.828125 30.867188 41.585938 30.828125 41.585938 30.828125 C 41.585938 30.828125 42.34375 30.800781 42.34375 30.800781 C 42.851562 30.78125 43.355469 30.765625 43.863281 30.753906 C 44.871094 30.726562 45.882812 30.730469 46.894531 30.730469 C 47.398438 30.730469 47.90625 30.730469 48.410156 30.734375 C 48.917969 30.738281 49.421875 30.75 49.925781 30.757812 C 50.9375 30.777344 51.949219 30.792969 52.960938 30.785156 C 53.972656 30.777344 54.980469 30.734375 55.992188 30.734375 C 57.003906 30.738281 58.015625 30.773438 59.027344 30.828125 C 59.277344 30.839844 59.53125 30.855469 59.785156 30.871094 C 60.039062 30.886719 60.289062 30.90625 60.542969 30.925781 C 61.046875 30.964844 61.554688 31.011719 62.058594 31.074219 C 62.078125 31.074219 62.09375 31.09375 62.089844 31.113281 C 62.089844 31.128906 62.074219 31.144531 62.058594 31.144531 C 61.554688 31.207031 61.046875 31.253906 60.542969 31.292969 C 60.289062 31.3125 60.039062 31.332031 59.785156 31.34375 C 59.53125 31.359375 59.277344 31.378906 59.027344 31.390625 C 58.015625 31.445312 57.003906 31.480469 55.992188 31.484375 C 54.980469 31.484375 53.972656 31.4375 52.960938 31.433594 C 51.949219 31.425781 50.9375 31.441406 49.925781 31.460938 C 49.421875 31.46875 48.917969 31.480469 48.410156 31.484375 C 47.90625 31.488281 47.398438 31.488281 46.894531 31.488281 C 45.882812 31.488281 44.871094 31.488281 43.863281 31.464844 C 43.355469 31.453125 42.851562 31.4375 42.34375 31.417969 C 42.34375 31.417969 41.585938 31.386719 41.585938 31.386719 C 41.585938 31.386719 40.828125 31.351562 40.828125 31.351562 C 39.816406 31.300781 38.804688 31.238281 37.796875 31.144531 C 37.777344 31.144531 37.761719 31.125 37.761719 31.105469 C 37.765625 31.089844 37.777344 31.074219 37.796875 31.074219 Z M 37.796875 31.074219 " fill-opacity="1" fill-rule="nonzero"/><path fill="#ffffff" d="M 42.933594 42.191406 C 43.683594 42.089844 44.433594 42.03125 45.179688 41.980469 C 45.179688 41.980469 45.742188 41.945312 45.742188 41.945312 C 45.742188 41.945312 46.304688 41.917969 46.304688 41.917969 C 46.679688 41.898438 47.054688 41.886719 47.429688 41.882812 C 48.179688 41.871094 48.929688 41.894531 49.675781 41.894531 C 49.675781 41.894531 51.925781 41.902344 51.925781 41.902344 C 51.925781 41.902344 53.050781 41.90625 53.050781 41.90625 C 53.425781 41.90625 53.800781 41.90625 54.171875 41.902344 C 54.921875 41.890625 55.671875 41.847656 56.421875 41.851562 C 57.171875 41.855469 57.921875 41.890625 58.667969 41.945312 C 58.855469 41.957031 59.042969 41.976562 59.230469 41.992188 C 59.417969 42.007812 59.605469 42.023438 59.792969 42.046875 C 60.167969 42.085938 60.542969 42.128906 60.917969 42.191406 C 60.9375 42.195312 60.949219 42.214844 60.949219 42.234375 C 60.945312 42.25 60.933594 42.261719 60.917969 42.261719 C 60.542969 42.324219 60.167969 42.371094 59.792969 42.410156 C 59.605469 42.429688 59.417969 42.449219 59.230469 42.464844 C 59.042969 42.480469 58.855469 42.496094 58.667969 42.507812 C 57.921875 42.5625 57.171875 42.597656 56.421875 42.601562 C 55.671875 42.605469 54.921875 42.5625 54.171875 42.554688 C 53.800781 42.546875 53.425781 42.550781 53.050781 42.550781 C 53.050781 42.550781 51.925781 42.550781 51.925781 42.550781 C 51.925781 42.550781 49.675781 42.558594 49.675781 42.558594 C 48.929688 42.5625 48.179688 42.585938 47.429688 42.574219 C 47.054688 42.566406 46.679688 42.554688 46.304688 42.539062 C 46.304688 42.539062 45.742188 42.511719 45.742188 42.511719 C 45.742188 42.511719 45.179688 42.476562 45.179688 42.476562 C 44.433594 42.425781 43.683594 42.367188 42.933594 42.261719 C 42.914062 42.261719 42.898438 42.242188 42.902344 42.222656 C 42.90625 42.207031 42.917969 42.195312 42.933594 42.191406 Z M 42.933594 42.191406 " fill-opacity="1" fill-rule="nonzero"/><path fill="#ffffff" d="M 49.429688 53.3125 C 50.019531 53.214844 50.609375 53.15625 51.203125 53.101562 C 51.203125 53.101562 51.648438 53.066406 51.648438 53.066406 C 51.648438 53.066406 52.089844 53.035156 52.089844 53.035156 C 52.386719 53.015625 52.683594 53.003906 52.976562 52.992188 C 53.570312 52.96875 54.160156 52.972656 54.753906 52.972656 C 55.050781 52.976562 55.34375 52.976562 55.640625 52.980469 C 55.9375 52.980469 56.234375 52.992188 56.527344 53 C 57.121094 53.015625 57.710938 53.03125 58.304688 53.023438 C 58.894531 53.015625 59.488281 52.972656 60.078125 52.972656 C 60.375 52.972656 60.671875 52.980469 60.964844 53 C 61.261719 53.015625 61.558594 53.039062 61.855469 53.0625 C 62.148438 53.089844 62.445312 53.121094 62.742188 53.164062 C 63.039062 53.203125 63.332031 53.25 63.628906 53.3125 C 63.648438 53.316406 63.660156 53.335938 63.65625 53.355469 C 63.65625 53.367188 63.644531 53.378906 63.628906 53.382812 C 63.332031 53.445312 63.039062 53.488281 62.742188 53.527344 C 62.445312 53.570312 62.148438 53.601562 61.855469 53.628906 C 61.558594 53.65625 61.261719 53.675781 60.964844 53.691406 C 60.671875 53.710938 60.375 53.722656 60.078125 53.722656 C 59.488281 53.722656 58.894531 53.675781 58.304688 53.671875 C 57.710938 53.660156 57.121094 53.675781 56.527344 53.695312 C 56.234375 53.699219 55.9375 53.710938 55.640625 53.714844 C 55.34375 53.71875 55.050781 53.71875 54.753906 53.71875 C 54.160156 53.71875 53.570312 53.722656 52.976562 53.703125 C 52.683594 53.691406 52.386719 53.675781 52.089844 53.65625 C 52.089844 53.65625 51.648438 53.625 51.648438 53.625 C 51.648438 53.625 51.203125 53.589844 51.203125 53.589844 C 50.609375 53.539062 50.019531 53.476562 49.429688 53.382812 C 49.40625 53.378906 49.394531 53.359375 49.398438 53.339844 C 49.402344 53.324219 49.414062 53.3125 49.429688 53.3125 Z M 49.429688 53.3125 " fill-opacity="1" fill-rule="nonzero"/><path fill="#ffffff" d="M 48.570312 47.75 C 49.164062 47.65625 49.753906 47.597656 50.347656 47.542969 C 50.347656 47.542969 50.789062 47.507812 50.789062 47.507812 C 50.789062 47.507812 51.234375 47.476562 51.234375 47.476562 C 51.53125 47.457031 51.824219 47.441406 52.121094 47.433594 C 52.714844 47.410156 53.304688 47.414062 53.898438 47.414062 C 54.191406 47.414062 54.488281 47.414062 54.785156 47.417969 C 55.082031 47.421875 55.375 47.433594 55.671875 47.441406 C 56.265625 47.457031 56.855469 47.472656 57.449219 47.464844 C 58.039062 47.457031 58.632812 47.410156 59.222656 47.414062 C 59.519531 47.414062 59.816406 47.421875 60.109375 47.441406 C 60.40625 47.457031 60.703125 47.476562 60.996094 47.503906 C 61.292969 47.53125 61.589844 47.5625 61.886719 47.605469 C 62.179688 47.644531 62.476562 47.6875 62.773438 47.75 C 62.792969 47.753906 62.804688 47.773438 62.800781 47.792969 C 62.796875 47.808594 62.785156 47.820312 62.773438 47.824219 C 62.476562 47.886719 62.179688 47.929688 61.886719 47.96875 C 61.589844 48.011719 61.292969 48.042969 60.996094 48.070312 C 60.703125 48.097656 60.40625 48.117188 60.109375 48.132812 C 59.816406 48.152344 59.519531 48.160156 59.222656 48.160156 C 58.632812 48.164062 58.039062 48.117188 57.449219 48.109375 C 56.855469 48.101562 56.265625 48.117188 55.671875 48.132812 C 55.375 48.140625 55.082031 48.152344 54.785156 48.152344 C 54.488281 48.160156 54.191406 48.160156 53.898438 48.160156 C 53.304688 48.160156 52.714844 48.164062 52.121094 48.140625 C 51.824219 48.128906 51.53125 48.117188 51.234375 48.097656 C 51.234375 48.097656 50.789062 48.066406 50.789062 48.066406 C 50.789062 48.066406 50.347656 48.03125 50.347656 48.03125 C 49.753906 47.976562 49.164062 47.917969 48.570312 47.824219 C 48.550781 47.820312 48.539062 47.800781 48.542969 47.78125 C 48.542969 47.765625 48.554688 47.753906 48.570312 47.75 Z M 48.570312 47.75 " fill-opacity="1" fill-rule="nonzero"/><path fill="#ffffff" d="M 43.363281 58.871094 C 44.152344 58.769531 44.945312 58.710938 45.734375 58.660156 C 45.734375 58.660156 46.328125 58.625 46.328125 58.625 C 46.328125 58.625 46.921875 58.597656 46.921875 58.597656 C 47.316406 58.578125 47.710938 58.5625 48.109375 58.554688 C 48.898438 58.539062 49.691406 58.550781 50.480469 58.554688 C 51.269531 58.554688 52.0625 58.558594 52.851562 58.570312 C 53.644531 58.578125 54.433594 58.589844 55.226562 58.582031 C 56.015625 58.570312 56.808594 58.527344 57.597656 58.53125 C 58.390625 58.535156 59.179688 58.570312 59.972656 58.625 C 60.167969 58.636719 60.367188 58.652344 60.566406 58.667969 C 60.761719 58.683594 60.960938 58.703125 61.160156 58.722656 C 61.554688 58.761719 61.949219 58.808594 62.34375 58.871094 C 62.363281 58.875 62.378906 58.890625 62.375 58.910156 C 62.371094 58.925781 62.359375 58.9375 62.34375 58.941406 C 61.949219 59.003906 61.554688 59.050781 61.160156 59.089844 C 60.960938 59.109375 60.761719 59.128906 60.566406 59.140625 C 60.367188 59.15625 60.167969 59.175781 59.972656 59.1875 C 59.179688 59.242188 58.390625 59.277344 57.597656 59.28125 C 56.808594 59.28125 56.015625 59.238281 55.226562 59.230469 C 54.433594 59.222656 53.644531 59.230469 52.851562 59.242188 C 52.0625 59.253906 51.269531 59.253906 50.480469 59.257812 C 49.691406 59.257812 48.898438 59.273438 48.109375 59.257812 C 47.710938 59.246094 47.316406 59.234375 46.921875 59.214844 C 46.921875 59.214844 46.328125 59.1875 46.328125 59.1875 C 46.328125 59.1875 45.734375 59.152344 45.734375 59.152344 C 44.945312 59.101562 44.152344 59.039062 43.363281 58.941406 C 43.34375 58.9375 43.328125 58.921875 43.332031 58.902344 C 43.332031 58.882812 43.347656 58.871094 43.363281 58.871094 Z M 43.363281 58.871094 " fill-opacity="1" fill-rule="nonzero"/><path fill="#ffffff" d="M 45.074219 64.609375 C 45.730469 64.484375 46.390625 64.410156 47.050781 64.34375 C 47.378906 64.3125 47.707031 64.285156 48.039062 64.265625 C 48.367188 64.242188 48.699219 64.226562 49.027344 64.21875 C 49.6875 64.203125 50.347656 64.230469 51.007812 64.222656 C 51.667969 64.214844 52.328125 64.191406 52.988281 64.167969 C 52.988281 64.167969 54.96875 64.09375 54.96875 64.09375 C 55.628906 64.0625 56.289062 64.007812 56.949219 64 C 57.277344 63.992188 57.609375 63.996094 57.9375 64.007812 C 58.269531 64.015625 58.601562 64.03125 58.929688 64.050781 C 59.261719 64.070312 59.59375 64.09375 59.921875 64.125 C 60.253906 64.15625 60.585938 64.195312 60.917969 64.25 C 60.9375 64.253906 60.949219 64.273438 60.945312 64.292969 C 60.945312 64.308594 60.933594 64.320312 60.917969 64.320312 C 60.589844 64.390625 60.261719 64.445312 59.929688 64.492188 C 59.601562 64.539062 59.273438 64.578125 58.945312 64.613281 C 58.613281 64.648438 58.285156 64.675781 57.953125 64.699219 C 57.625 64.726562 57.296875 64.742188 56.964844 64.753906 C 56.304688 64.773438 55.644531 64.746094 54.984375 64.75 C 54.984375 64.75 53.003906 64.761719 53.003906 64.761719 C 52.34375 64.769531 51.683594 64.777344 51.023438 64.796875 C 50.363281 64.820312 49.703125 64.875 49.042969 64.890625 C 48.710938 64.898438 48.382812 64.898438 48.050781 64.890625 C 47.722656 64.882812 47.390625 64.871094 47.0625 64.855469 C 46.398438 64.816406 45.738281 64.773438 45.074219 64.679688 C 45.054688 64.675781 45.042969 64.65625 45.042969 64.636719 C 45.046875 64.621094 45.058594 64.609375 45.074219 64.609375 Z M 45.074219 64.609375 " fill-opacity="1" fill-rule="nonzero"/><path fill="#ffffff" d="M 46.359375 36.632812 C 46.636719 36.574219 46.914062 36.53125 47.191406 36.496094 C 47.472656 36.457031 47.75 36.429688 48.027344 36.40625 C 48.304688 36.382812 48.582031 36.367188 48.863281 36.355469 C 49.140625 36.339844 49.417969 36.335938 49.695312 36.34375 C 50.25 36.359375 50.808594 36.421875 51.363281 36.433594 C 51.917969 36.445312 52.476562 36.429688 53.03125 36.402344 C 53.308594 36.390625 53.585938 36.375 53.867188 36.363281 C 53.867188 36.363281 54.699219 36.335938 54.699219 36.335938 C 55.257812 36.320312 55.8125 36.285156 56.367188 36.289062 C 56.925781 36.296875 57.480469 36.332031 58.035156 36.386719 C 58.3125 36.414062 58.59375 36.445312 58.871094 36.484375 C 59.148438 36.523438 59.425781 36.570312 59.703125 36.632812 C 59.722656 36.636719 59.738281 36.65625 59.730469 36.675781 C 59.730469 36.691406 59.71875 36.699219 59.703125 36.703125 C 59.425781 36.765625 59.148438 36.8125 58.871094 36.851562 C 58.59375 36.890625 58.3125 36.921875 58.035156 36.949219 C 57.480469 37.003906 56.925781 37.039062 56.367188 37.046875 C 55.8125 37.054688 55.257812 37.015625 54.699219 37 C 54.699219 37 53.867188 36.972656 53.867188 36.972656 C 53.585938 36.964844 53.308594 36.949219 53.03125 36.933594 C 52.476562 36.910156 51.917969 36.890625 51.363281 36.902344 C 50.808594 36.917969 50.25 36.980469 49.695312 36.992188 C 49.417969 37 49.140625 36.996094 48.863281 36.980469 C 48.582031 36.96875 48.304688 36.953125 48.027344 36.929688 C 47.75 36.90625 47.472656 36.878906 47.191406 36.84375 C 46.914062 36.804688 46.636719 36.765625 46.359375 36.703125 C 46.339844 36.699219 46.328125 36.679688 46.332031 36.660156 C 46.335938 36.644531 46.34375 36.636719 46.359375 36.632812 Z M 46.359375 36.632812 " fill-opacity="1" fill-rule="nonzero"/><path fill="#ff3953" d="M 24.246094 46.042969 C 24.246094 46.042969 11.777344 45.363281 11.777344 45.363281 C 11.777344 45.363281 11.777344 51.613281 11.777344 51.613281 C 11.777344 51.613281 24.082031 50.722656 24.082031 50.722656 C 24.082031 50.722656 24.246094 46.042969 24.246094 46.042969 Z M 24.246094 46.042969 " fill-opacity="1" fill-rule="nonzero"/><path fill="#ff3953" d="M 15.617188 50.824219 C 15.617188 50.824219 18.117188 55.097656 18.117188 55.097656 C 18.117188 55.097656 15.078125 58.578125 15.078125 58.578125 C 15.078125 58.578125 18.902344 63.109375 18.902344 63.109375 C 18.902344 63.109375 22.15625 60.152344 22.15625 60.152344 C 22.15625 60.152344 26.40625 53.347656 26.40625 53.347656 C 26.40625 53.347656 23.214844 49.632812 23.214844 49.632812 C 23.214844 49.632812 15.617188 50.824219 15.617188 50.824219 Z M 15.617188 50.824219 " fill-opacity="1" fill-rule="nonzero"/><path fill="#ff3953" d="M 25.542969 52.980469 C 25.542969 52.980469 22.15625 59.910156 22.15625 59.910156 C 22.15625 59.910156 26.144531 61.050781 26.144531 61.050781 C 26.144531 61.050781 26.332031 65.8125 26.332031 65.8125 C 26.332031 65.8125 31.996094 65.589844 31.996094 65.589844 C 31.996094 65.589844 32.183594 61.414062 32.183594 61.414062 C 32.183594 61.414062 35.996094 59.394531 35.996094 59.394531 C 35.996094 59.394531 39.410156 62.628906 39.410156 62.628906 C 39.410156 62.628906 42.667969 59.042969 42.667969 59.042969 C 42.667969 59.042969 40.453125 55.414062 40.453125 55.414062 C 40.453125 55.414062 33.796875 51.613281 33.796875 51.613281 C 33.796875 51.613281 32.410156 53.199219 32.410156 53.199219 C 32.410156 53.199219 29.730469 54.03125 29.730469 54.03125 C 29.730469 54.03125 27.210938 54.03125 27.210938 54.03125 C 27.210938 54.03125 25.542969 52.980469 25.542969 52.980469 Z M 25.542969 52.980469 " fill-opacity="1" fill-rule="nonzero"/><path fill="#ff3953" d="M 40.453125 55.414062 C 40.453125 55.414062 42.289062 51.871094 42.289062 51.871094 C 42.289062 51.871094 46.859375 51.613281 46.859375 51.613281 C 46.859375 51.613281 46.460938 45.363281 46.460938 45.363281 C 46.460938 45.363281 40.894531 45.046875 40.894531 45.046875 C 40.894531 45.046875 39.371094 42.226562 39.371094 42.226562 C 39.371094 42.226562 43.117188 38.140625 43.117188 38.140625 C 43.117188 38.140625 39.28125 34.238281 39.28125 34.238281 C 39.28125 34.238281 35.707031 36.96875 35.707031 36.96875 C 35.707031 36.96875 32.136719 35.628906 32.136719 35.628906 C 32.136719 35.628906 32.851562 30.941406 32.851562 30.941406 C 32.851562 30.941406 25.972656 30.941406 25.972656 30.941406 C 25.972656 30.941406 25.972656 35.1875 25.972656 35.1875 C 25.972656 35.1875 22.757812 37.058594 22.757812 37.058594 C 22.757812 37.058594 18.527344 34.1875 18.527344 34.1875 C 18.527344 34.1875 14.875 38.417969 14.875 38.417969 C 14.875 38.417969 17.683594 41.5625 17.683594 41.5625 C 17.683594 41.5625 16.605469 45.363281 16.605469 45.363281 C 16.605469 45.363281 16.40625 46.355469 16.40625 46.355469 C 16.40625 46.355469 23.96875 46.914062 23.96875 46.914062 C 23.96875 46.914062 25.328125 43.59375 26.808594 43.433594 C 26.808594 43.433594 27.488281 42.871094 28.851562 42.871094 C 30.210938 42.871094 33.171875 43.074219 34.253906 45.632812 C 35.332031 48.195312 35.191406 49.574219 34.816406 49.957031 C 34.441406 50.335938 33.796875 51.613281 33.796875 51.613281 C 33.796875 51.613281 40.453125 55.414062 40.453125 55.414062 Z M 40.453125 55.414062 " fill-opacity="1" fill-rule="nonzero"/><path fill="#ffffff" d="M 32.785156 30.996094 C 31.628906 31.019531 30.484375 31.046875 29.347656 31.078125 C 28.214844 31.105469 27.09375 31.132812 25.972656 31.15625 C 25.972656 31.15625 26.191406 30.941406 26.191406 30.941406 C 26.210938 31.691406 26.230469 32.441406 26.246094 33.195312 C 26.246094 33.195312 26.285156 35.449219 26.285156 35.449219 C 26.289062 35.566406 26.222656 35.671875 26.125 35.722656 C 26.125 35.722656 26.113281 35.726562 26.113281 35.726562 C 26.113281 35.726562 24.519531 36.558594 24.519531 36.558594 C 24.519531 36.558594 22.921875 37.382812 22.921875 37.382812 C 22.800781 37.445312 22.65625 37.429688 22.550781 37.355469 C 22.550781 37.355469 22.542969 37.351562 22.542969 37.351562 C 22.542969 37.351562 21.574219 36.65625 21.574219 36.65625 C 21.574219 36.65625 20.609375 35.960938 20.609375 35.960938 C 20.609375 35.960938 18.675781 34.570312 18.675781 34.570312 C 18.675781 34.570312 19.214844 34.523438 19.214844 34.523438 C 18.539062 35.238281 17.855469 35.949219 17.175781 36.660156 C 17.175781 36.660156 15.132812 38.792969 15.132812 38.792969 C 15.132812 38.792969 15.121094 38.167969 15.121094 38.167969 C 15.121094 38.167969 18.070312 41.019531 18.070312 41.019531 C 18.199219 41.144531 18.238281 41.328125 18.183594 41.484375 C 18.183594 41.484375 17.511719 43.492188 17.511719 43.492188 C 17.511719 43.492188 16.835938 45.5 16.835938 45.5 C 16.835938 45.5 16.835938 45.503906 16.835938 45.503906 C 16.773438 45.6875 16.601562 45.800781 16.417969 45.800781 C 16.417969 45.800781 14.097656 45.796875 14.097656 45.796875 C 14.097656 45.796875 11.777344 45.78125 11.777344 45.78125 C 11.777344 45.78125 12.195312 45.363281 12.195312 45.363281 C 12.195312 45.363281 12.175781 48.488281 12.175781 48.488281 C 12.175781 48.488281 12.148438 51.613281 12.148438 51.613281 C 12.148438 51.613281 11.777344 51.242188 11.777344 51.242188 C 11.777344 51.242188 13.828125 51.261719 13.828125 51.261719 C 13.828125 51.261719 15.882812 51.289062 15.882812 51.289062 C 15.882812 51.289062 15.890625 51.289062 15.890625 51.289062 C 16.003906 51.292969 16.101562 51.351562 16.15625 51.4375 C 16.15625 51.4375 17.246094 53.195312 17.246094 53.195312 C 17.246094 53.195312 18.335938 54.957031 18.335938 54.957031 C 18.335938 54.957031 18.339844 54.964844 18.339844 54.964844 C 18.398438 55.0625 18.386719 55.183594 18.3125 55.265625 C 18.3125 55.265625 16.757812 56.976562 16.757812 56.976562 C 16.757812 56.976562 15.199219 58.683594 15.199219 58.683594 C 15.199219 58.683594 15.203125 58.476562 15.203125 58.476562 C 15.542969 58.835938 15.878906 59.203125 16.207031 59.574219 C 16.539062 59.945312 16.863281 60.320312 17.1875 60.699219 C 17.1875 60.699219 17.671875 61.265625 17.671875 61.265625 C 17.832031 61.453125 17.992188 61.644531 18.148438 61.835938 C 18.460938 62.222656 18.761719 62.617188 19.039062 63.035156 C 19.039062 63.035156 18.816406 63.019531 18.816406 63.019531 C 18.816406 63.019531 20.488281 61.429688 20.488281 61.429688 C 20.488281 61.429688 22.164062 59.84375 22.164062 59.84375 C 22.21875 59.789062 22.296875 59.773438 22.363281 59.789062 C 22.363281 59.789062 22.371094 59.792969 22.371094 59.792969 C 22.371094 59.792969 24.34375 60.300781 24.34375 60.300781 C 24.34375 60.300781 26.316406 60.8125 26.316406 60.8125 C 26.433594 60.84375 26.511719 60.949219 26.515625 61.066406 C 26.515625 61.066406 26.515625 61.074219 26.515625 61.074219 C 26.515625 61.074219 26.65625 65.804688 26.65625 65.804688 C 26.65625 65.804688 26.332031 65.488281 26.332031 65.488281 C 26.332031 65.488281 29.277344 65.457031 29.277344 65.457031 C 29.277344 65.457031 32.226562 65.429688 32.226562 65.429688 C 32.226562 65.429688 31.84375 65.820312 31.84375 65.820312 C 31.84375 65.820312 31.722656 61.449219 31.722656 61.449219 C 31.71875 61.292969 31.800781 61.15625 31.925781 61.082031 C 31.925781 61.082031 31.929688 61.078125 31.929688 61.078125 C 31.929688 61.078125 35.667969 58.90625 35.667969 58.90625 C 35.839844 58.808594 36.050781 58.839844 36.1875 58.96875 C 36.1875 58.96875 36.191406 58.972656 36.191406 58.972656 C 36.191406 58.972656 39.785156 62.332031 39.785156 62.332031 C 39.785156 62.332031 39.125 62.34375 39.125 62.34375 C 39.125 62.34375 42.5 58.941406 42.5 58.941406 C 42.5 58.941406 42.453125 59.589844 42.453125 59.589844 C 42.453125 59.589844 39.847656 56.117188 39.847656 56.117188 C 39.730469 55.960938 39.71875 55.757812 39.796875 55.59375 C 39.796875 55.59375 39.796875 55.589844 39.796875 55.589844 C 39.796875 55.589844 41.664062 51.652344 41.664062 51.652344 C 41.746094 51.472656 41.921875 51.367188 42.105469 51.355469 C 42.105469 51.355469 46.660156 51.085938 46.660156 51.085938 C 46.660156 51.085938 46.164062 51.613281 46.164062 51.613281 C 46.164062 51.613281 46.179688 45.628906 46.179688 45.628906 C 46.179688 45.628906 46.667969 46.140625 46.667969 46.140625 C 46.667969 46.140625 41.042969 45.84375 41.042969 45.84375 C 41.042969 45.84375 41.039062 45.84375 41.039062 45.84375 C 40.867188 45.832031 40.71875 45.734375 40.644531 45.589844 C 40.644531 45.589844 38.878906 42.273438 38.878906 42.273438 C 38.878906 42.273438 38.875 42.269531 38.875 42.269531 C 38.78125 42.089844 38.820312 41.875 38.953125 41.738281 C 38.953125 41.738281 41.027344 39.660156 41.027344 39.660156 C 41.027344 39.660156 43.105469 37.582031 43.105469 37.582031 C 43.105469 37.582031 43.125 38.160156 43.125 38.160156 C 43.125 38.160156 41.09375 36.320312 41.09375 36.320312 C 41.09375 36.320312 39.066406 34.480469 39.066406 34.480469 C 39.066406 34.480469 39.476562 34.492188 39.476562 34.492188 C 39.476562 34.492188 37.667969 35.832031 37.667969 35.832031 C 37.667969 35.832031 35.859375 37.164062 35.859375 37.164062 C 35.859375 37.164062 35.851562 37.167969 35.851562 37.167969 C 35.78125 37.21875 35.695312 37.226562 35.621094 37.199219 C 35.621094 37.199219 33.847656 36.492188 33.847656 36.492188 C 33.847656 36.492188 32.078125 35.78125 32.078125 35.78125 C 32.078125 35.78125 32.074219 35.777344 32.074219 35.777344 C 32.003906 35.75 31.964844 35.675781 31.976562 35.601562 C 32.101562 34.84375 32.238281 34.085938 32.375 33.316406 C 32.375 33.316406 32.785156 30.996094 32.785156 30.996094 Z M 32.917969 30.882812 C 32.917969 30.882812 32.613281 33.25 32.613281 33.25 C 32.511719 34.046875 32.40625 34.847656 32.296875 35.652344 C 32.296875 35.652344 32.195312 35.476562 32.195312 35.476562 C 32.195312 35.476562 33.996094 36.101562 33.996094 36.101562 C 33.996094 36.101562 35.796875 36.734375 35.796875 36.734375 C 35.796875 36.734375 35.558594 36.769531 35.558594 36.769531 C 35.558594 36.769531 37.320312 35.375 37.320312 35.375 C 37.320312 35.375 39.085938 33.980469 39.085938 33.980469 C 39.207031 33.882812 39.375 33.890625 39.488281 33.988281 C 39.488281 33.988281 39.496094 33.992188 39.496094 33.992188 C 39.496094 33.992188 41.574219 35.777344 41.574219 35.777344 C 41.574219 35.777344 43.652344 37.5625 43.652344 37.5625 C 43.816406 37.703125 43.835938 37.953125 43.691406 38.117188 C 43.6875 38.121094 43.683594 38.125 43.679688 38.128906 C 43.679688 38.128906 43.671875 38.136719 43.671875 38.136719 C 43.671875 38.136719 41.640625 40.257812 41.640625 40.257812 C 41.640625 40.257812 39.605469 42.375 39.605469 42.375 C 39.605469 42.375 39.683594 41.839844 39.683594 41.839844 C 39.683594 41.839844 41.492188 45.132812 41.492188 45.132812 C 41.492188 45.132812 41.089844 44.878906 41.089844 44.878906 C 41.089844 44.878906 46.71875 45.117188 46.71875 45.117188 C 46.988281 45.128906 47.203125 45.355469 47.203125 45.625 C 47.203125 45.625 47.203125 45.628906 47.203125 45.628906 C 47.203125 45.628906 47.222656 51.613281 47.222656 51.613281 C 47.222656 51.894531 47.003906 52.125 46.726562 52.140625 C 46.726562 52.140625 46.722656 52.140625 46.722656 52.140625 C 46.722656 52.140625 42.167969 52.40625 42.167969 52.40625 C 42.167969 52.40625 42.613281 52.109375 42.613281 52.109375 C 42.613281 52.109375 40.726562 56.03125 40.726562 56.03125 C 40.726562 56.03125 40.675781 55.503906 40.675781 55.503906 C 40.675781 55.503906 43.253906 58.996094 43.253906 58.996094 C 43.253906 58.996094 43.253906 59 43.253906 59 C 43.402344 59.199219 43.378906 59.476562 43.203125 59.644531 C 43.203125 59.644531 39.792969 63.011719 39.792969 63.011719 C 39.792969 63.011719 39.789062 63.015625 39.789062 63.015625 C 39.609375 63.191406 39.316406 63.191406 39.136719 63.019531 C 39.136719 63.019531 35.582031 59.613281 35.582031 59.613281 C 35.582031 59.613281 36.105469 59.675781 36.105469 59.675781 C 36.105469 59.675781 32.34375 61.800781 32.34375 61.800781 C 32.34375 61.800781 32.550781 61.429688 32.550781 61.429688 C 32.550781 61.429688 32.605469 65.804688 32.605469 65.804688 C 32.605469 65.804688 32.605469 65.808594 32.605469 65.808594 C 32.609375 66.019531 32.441406 66.191406 32.234375 66.191406 C 32.234375 66.191406 32.226562 66.191406 32.226562 66.191406 C 32.226562 66.191406 29.277344 66.167969 29.277344 66.167969 C 29.277344 66.167969 26.332031 66.136719 26.332031 66.136719 C 26.332031 66.136719 26.324219 66.136719 26.324219 66.136719 C 26.148438 66.136719 26.007812 65.992188 26.007812 65.816406 C 26.007812 65.816406 25.96875 61.085938 25.96875 61.085938 C 25.96875 61.085938 26.171875 61.34375 26.171875 61.34375 C 26.171875 61.34375 24.210938 60.785156 24.210938 60.785156 C 24.210938 60.785156 22.253906 60.222656 22.253906 60.222656 C 22.253906 60.222656 22.464844 60.171875 22.464844 60.171875 C 22.464844 60.171875 20.746094 61.710938 20.746094 61.710938 C 20.746094 61.710938 19.023438 63.246094 19.023438 63.246094 C 18.964844 63.300781 18.871094 63.296875 18.8125 63.246094 C 18.8125 63.246094 18.800781 63.230469 18.800781 63.230469 C 18.4375 62.890625 18.101562 62.523438 17.773438 62.152344 C 17.609375 61.964844 17.449219 61.777344 17.289062 61.585938 C 17.289062 61.585938 16.8125 61.015625 16.8125 61.015625 C 16.496094 60.632812 16.183594 60.246094 15.871094 59.859375 C 15.5625 59.46875 15.253906 59.078125 14.957031 58.683594 C 14.957031 58.683594 14.953125 58.675781 14.953125 58.675781 C 14.90625 58.613281 14.910156 58.53125 14.957031 58.472656 C 14.957031 58.472656 16.4375 56.695312 16.4375 56.695312 C 16.4375 56.695312 17.921875 54.925781 17.921875 54.925781 C 17.921875 54.925781 17.898438 55.234375 17.898438 55.234375 C 17.898438 55.234375 16.75 53.511719 16.75 53.511719 C 16.75 53.511719 15.609375 51.789062 15.609375 51.789062 C 15.609375 51.789062 15.882812 51.9375 15.882812 51.9375 C 15.882812 51.9375 13.828125 51.964844 13.828125 51.964844 C 13.828125 51.964844 11.777344 51.984375 11.777344 51.984375 C 11.574219 51.988281 11.40625 51.824219 11.402344 51.621094 C 11.402344 51.621094 11.402344 51.613281 11.402344 51.613281 C 11.402344 51.613281 11.375 48.488281 11.375 48.488281 C 11.375 48.488281 11.355469 45.363281 11.355469 45.363281 C 11.351562 45.128906 11.539062 44.941406 11.769531 44.941406 C 11.769531 44.941406 11.777344 44.941406 11.777344 44.941406 C 11.777344 44.941406 14.097656 44.929688 14.097656 44.929688 C 14.097656 44.929688 16.417969 44.921875 16.417969 44.921875 C 16.417969 44.921875 16 45.222656 16 45.222656 C 16 45.222656 16.664062 43.210938 16.664062 43.210938 C 16.664062 43.210938 17.332031 41.203125 17.332031 41.203125 C 17.332031 41.203125 17.445312 41.664062 17.445312 41.664062 C 17.445312 41.664062 14.503906 38.804688 14.503906 38.804688 C 14.503906 38.804688 14.5 38.804688 14.5 38.804688 C 14.324219 38.632812 14.320312 38.351562 14.492188 38.175781 C 14.492188 38.175781 16.554688 36.0625 16.554688 36.0625 C 17.246094 35.359375 17.929688 34.648438 18.621094 33.949219 C 18.621094 33.949219 18.628906 33.945312 18.628906 33.945312 C 18.773438 33.796875 19.003906 33.78125 19.164062 33.902344 C 19.164062 33.902344 21.070312 35.332031 21.070312 35.332031 C 21.070312 35.332031 22.023438 36.046875 22.023438 36.046875 C 22.023438 36.046875 22.976562 36.761719 22.976562 36.761719 C 22.976562 36.761719 22.597656 36.730469 22.597656 36.730469 C 22.597656 36.730469 24.214844 35.949219 24.214844 35.949219 C 24.214844 35.949219 25.835938 35.171875 25.835938 35.171875 C 25.835938 35.171875 25.664062 35.449219 25.664062 35.449219 C 25.664062 35.449219 25.703125 33.195312 25.703125 33.195312 C 25.71875 32.441406 25.738281 31.691406 25.757812 30.941406 C 25.757812 30.941406 25.757812 30.929688 25.757812 30.929688 C 25.761719 30.8125 25.859375 30.722656 25.972656 30.722656 C 27.148438 30.746094 28.316406 30.773438 29.476562 30.800781 C 30.632812 30.832031 31.78125 30.859375 32.917969 30.882812 Z M 32.917969 30.882812 " fill-opacity="1" fill-rule="nonzero"/><path fill="#ffffff" d="M 29.234375 42.8125 C 29.417969 42.8125 29.601562 42.808594 29.785156 42.824219 C 29.972656 42.832031 30.15625 42.859375 30.339844 42.878906 C 30.707031 42.929688 31.070312 43.015625 31.429688 43.132812 C 31.785156 43.25 32.136719 43.40625 32.46875 43.597656 C 32.800781 43.789062 33.113281 44.015625 33.402344 44.277344 C 33.976562 44.800781 34.441406 45.449219 34.757812 46.164062 C 34.914062 46.519531 35.039062 46.894531 35.125 47.277344 C 35.164062 47.472656 35.199219 47.664062 35.214844 47.867188 C 35.226562 47.964844 35.234375 48.066406 35.234375 48.167969 C 35.238281 48.21875 35.234375 48.269531 35.234375 48.320312 C 35.234375 48.371094 35.234375 48.421875 35.230469 48.472656 C 35.207031 48.875 35.128906 49.261719 35.019531 49.632812 C 34.910156 50.003906 34.761719 50.363281 34.589844 50.703125 C 34.246094 51.386719 33.796875 52.007812 33.257812 52.535156 C 32.71875 53.066406 32.082031 53.492188 31.382812 53.785156 C 31.035156 53.929688 30.675781 54.046875 30.304688 54.132812 C 30.214844 54.152344 30.121094 54.175781 30.027344 54.1875 C 29.933594 54.203125 29.839844 54.222656 29.746094 54.238281 C 29.558594 54.261719 29.371094 54.292969 29.179688 54.300781 C 28.988281 54.320312 28.796875 54.316406 28.601562 54.320312 C 28.410156 54.3125 28.214844 54.308594 28.023438 54.28125 C 28.023438 54.28125 27.878906 54.265625 27.878906 54.265625 C 27.878906 54.265625 27.734375 54.238281 27.734375 54.238281 C 27.636719 54.21875 27.539062 54.207031 27.445312 54.183594 C 27.351562 54.15625 27.253906 54.136719 27.160156 54.109375 C 27.160156 54.109375 26.878906 54.019531 26.878906 54.019531 C 26.128906 53.757812 25.449219 53.304688 24.886719 52.746094 C 24.320312 52.1875 23.863281 51.527344 23.542969 50.796875 C 23.5 50.707031 23.464844 50.617188 23.425781 50.523438 C 23.390625 50.429688 23.359375 50.332031 23.324219 50.238281 C 23.265625 50.042969 23.210938 49.847656 23.171875 49.640625 C 23.15625 49.539062 23.136719 49.433594 23.128906 49.324219 C 23.128906 49.324219 23.121094 49.242188 23.121094 49.242188 C 23.121094 49.242188 23.117188 49.15625 23.117188 49.15625 C 23.117188 49.15625 23.117188 49.070312 23.117188 49.070312 C 23.117188 49.070312 23.117188 48.996094 23.117188 48.996094 C 23.121094 48.796875 23.128906 48.605469 23.148438 48.410156 C 23.183594 48.023438 23.242188 47.636719 23.332031 47.257812 C 23.421875 46.878906 23.535156 46.503906 23.6875 46.144531 C 23.761719 45.960938 23.847656 45.785156 23.9375 45.609375 C 23.984375 45.523438 24.039062 45.4375 24.085938 45.355469 C 24.136719 45.269531 24.191406 45.1875 24.246094 45.105469 C 24.46875 44.777344 24.734375 44.480469 25.023438 44.214844 C 25.097656 44.152344 25.171875 44.085938 25.246094 44.027344 C 25.246094 44.027344 25.480469 43.847656 25.480469 43.847656 C 25.480469 43.847656 25.726562 43.691406 25.726562 43.691406 C 25.808594 43.636719 25.894531 43.59375 25.976562 43.546875 C 26.0625 43.496094 26.148438 43.457031 26.234375 43.417969 C 26.324219 43.375 26.40625 43.332031 26.5 43.300781 C 26.585938 43.269531 26.675781 43.234375 26.765625 43.199219 C 26.765625 43.199219 27.035156 43.117188 27.035156 43.117188 C 27.398438 43.015625 27.761719 42.929688 28.128906 42.890625 C 28.496094 42.835938 28.867188 42.824219 29.234375 42.8125 Z M 29.234375 42.910156 C 28.507812 42.929688 27.78125 43.066406 27.128906 43.367188 C 26.800781 43.511719 26.503906 43.710938 26.230469 43.925781 C 26.164062 43.984375 26.09375 44.035156 26.03125 44.097656 C 26.03125 44.097656 25.84375 44.277344 25.84375 44.277344 C 25.84375 44.277344 25.671875 44.46875 25.671875 44.46875 C 25.613281 44.535156 25.5625 44.605469 25.507812 44.667969 C 25.09375 45.214844 24.804688 45.835938 24.59375 46.480469 C 24.382812 47.128906 24.257812 47.808594 24.210938 48.496094 C 24.199219 48.667969 24.191406 48.835938 24.191406 49.007812 C 24.191406 49.007812 24.1875 49.070312 24.1875 49.070312 C 24.1875 49.070312 24.191406 49.121094 24.191406 49.121094 C 24.191406 49.121094 24.191406 49.171875 24.191406 49.171875 C 24.191406 49.171875 24.199219 49.226562 24.199219 49.226562 C 24.203125 49.296875 24.21875 49.375 24.226562 49.453125 C 24.28125 49.761719 24.382812 50.082031 24.507812 50.390625 C 24.753906 51.011719 25.113281 51.59375 25.566406 52.089844 C 26.015625 52.589844 26.566406 52.988281 27.175781 53.273438 C 27.175781 53.273438 27.410156 53.375 27.410156 53.375 C 27.488281 53.40625 27.570312 53.433594 27.648438 53.460938 C 27.726562 53.492188 27.8125 53.515625 27.890625 53.539062 C 27.890625 53.539062 28.015625 53.578125 28.015625 53.578125 C 28.015625 53.578125 28.140625 53.605469 28.140625 53.605469 C 28.308594 53.648438 28.480469 53.675781 28.648438 53.707031 C 28.824219 53.722656 28.996094 53.75 29.171875 53.753906 C 29.347656 53.765625 29.523438 53.761719 29.699219 53.757812 C 29.878906 53.75 30.054688 53.742188 30.230469 53.714844 C 30.40625 53.695312 30.578125 53.65625 30.753906 53.621094 C 30.753906 53.621094 31.007812 53.554688 31.007812 53.554688 C 31.09375 53.53125 31.179688 53.5 31.261719 53.46875 C 31.929688 53.230469 32.542969 52.832031 33.027344 52.3125 C 33.511719 51.792969 33.863281 51.15625 34.082031 50.492188 C 34.304688 49.828125 34.414062 49.121094 34.398438 48.460938 C 34.386719 48.136719 34.332031 47.808594 34.253906 47.476562 C 34.171875 47.148438 34.066406 46.824219 33.941406 46.507812 C 33.6875 45.871094 33.363281 45.261719 32.9375 44.710938 C 32.722656 44.4375 32.484375 44.183594 32.214844 43.953125 C 31.949219 43.726562 31.652344 43.527344 31.332031 43.367188 C 31.253906 43.328125 31.171875 43.285156 31.089844 43.253906 C 31.089844 43.253906 30.964844 43.203125 30.964844 43.203125 C 30.921875 43.1875 30.878906 43.171875 30.835938 43.15625 C 30.75 43.128906 30.667969 43.097656 30.578125 43.074219 C 30.578125 43.074219 30.316406 43.011719 30.316406 43.011719 C 30.226562 42.992188 30.136719 42.980469 30.046875 42.964844 C 29.960938 42.949219 29.867188 42.941406 29.777344 42.933594 C 29.597656 42.910156 29.417969 42.917969 29.234375 42.910156 Z M 29.234375 42.910156 " fill-opacity="1" fill-rule="nonzero"/><g fill="#ffffff" fill-opacity="1"><g transform="translate(84.385295, 46.331182)"><g><path d="M 8.21875 0.265625 C 7.039062 0.265625 5.976562 0.109375 5.03125 -0.203125 C 4.09375 -0.523438 3.3125 -0.945312 2.6875 -1.46875 C 2.0625 -2 1.59375 -2.578125 1.28125 -3.203125 L 2.5 -4.671875 L 2.8125 -4.671875 C 3.976562 -2.703125 5.78125 -1.71875 8.21875 -1.71875 C 9.632812 -1.71875 10.6875 -2.015625 11.375 -2.609375 C 12.070312 -3.203125 12.421875 -4.023438 12.421875 -5.078125 C 12.421875 -5.703125 12.304688 -6.226562 12.078125 -6.65625 C 11.847656 -7.082031 11.472656 -7.445312 10.953125 -7.75 C 10.429688 -8.0625 9.71875 -8.328125 8.8125 -8.546875 L 6.609375 -9.09375 C 4.972656 -9.476562 3.765625 -10.101562 2.984375 -10.96875 C 2.210938 -11.832031 1.828125 -12.925781 1.828125 -14.25 C 1.828125 -15.1875 2.066406 -16.019531 2.546875 -16.75 C 3.023438 -17.488281 3.726562 -18.0625 4.65625 -18.46875 C 5.582031 -18.882812 6.691406 -19.09375 7.984375 -19.09375 C 9.398438 -19.09375 10.59375 -18.890625 11.5625 -18.484375 C 12.539062 -18.085938 13.320312 -17.488281 13.90625 -16.6875 L 12.8125 -15.234375 L 12.5 -15.234375 C 11.957031 -15.898438 11.316406 -16.382812 10.578125 -16.6875 C 9.835938 -17 8.972656 -17.15625 7.984375 -17.15625 C 6.679688 -17.15625 5.695312 -16.898438 5.03125 -16.390625 C 4.363281 -15.890625 4.03125 -15.191406 4.03125 -14.296875 C 4.03125 -13.453125 4.273438 -12.773438 4.765625 -12.265625 C 5.253906 -11.765625 6.078125 -11.378906 7.234375 -11.109375 L 9.484375 -10.5625 C 11.316406 -10.132812 12.640625 -9.476562 13.453125 -8.59375 C 14.273438 -7.707031 14.6875 -6.570312 14.6875 -5.1875 C 14.6875 -4.125 14.445312 -3.179688 13.96875 -2.359375 C 13.488281 -1.535156 12.765625 -0.890625 11.796875 -0.421875 C 10.828125 0.0351562 9.632812 0.265625 8.21875 0.265625 Z M 8.21875 0.265625 "/></g></g><g transform="translate(100.514818, 46.331182)"><g><path d="M 9.1875 0 L 6.984375 0 L 6.984375 -7.390625 L 0.484375 -18.8125 L 2.90625 -18.8125 L 7.984375 -10 L 8.296875 -10 L 13.328125 -18.8125 L 15.703125 -18.8125 L 9.1875 -7.390625 Z M 9.1875 0 "/></g></g><g transform="translate(116.695832, 46.331182)"><g><path d="M 5 0 L 2.84375 0 L 2.84375 -18.8125 L 5.5625 -18.8125 L 14.734375 -4.4375 L 15.0625 -4.484375 L 15.0625 -18.8125 L 17.203125 -18.8125 L 17.203125 0 L 14.890625 0 L 5.328125 -15.375 L 5 -15.328125 Z M 5 0 "/></g></g><g transform="translate(136.764408, 46.331182)"><g><path d="M 10.40625 0.265625 C 8.75 0.265625 7.273438 -0.109375 5.984375 -0.859375 C 4.703125 -1.617188 3.695312 -2.722656 2.96875 -4.171875 C 2.238281 -5.628906 1.875 -7.375 1.875 -9.40625 C 1.875 -11.4375 2.238281 -13.179688 2.96875 -14.640625 C 3.695312 -16.097656 4.703125 -17.203125 5.984375 -17.953125 C 7.273438 -18.710938 8.75 -19.09375 10.40625 -19.09375 C 12.15625 -19.09375 13.613281 -18.757812 14.78125 -18.09375 C 15.945312 -17.425781 16.789062 -16.421875 17.3125 -15.078125 L 15.890625 -14.140625 L 15.578125 -14.140625 C 15.054688 -15.210938 14.382812 -15.972656 13.5625 -16.421875 C 12.738281 -16.878906 11.6875 -17.109375 10.40625 -17.109375 C 9.21875 -17.109375 8.164062 -16.84375 7.25 -16.3125 C 6.332031 -15.78125 5.601562 -14.941406 5.0625 -13.796875 C 4.519531 -12.648438 4.25 -11.1875 4.25 -9.40625 C 4.25 -7.625 4.519531 -6.160156 5.0625 -5.015625 C 5.601562 -3.878906 6.332031 -3.046875 7.25 -2.515625 C 8.164062 -1.984375 9.21875 -1.71875 10.40625 -1.71875 C 11.769531 -1.71875 12.882812 -2.023438 13.75 -2.640625 C 14.613281 -3.253906 15.253906 -4.25 15.671875 -5.625 L 16 -5.625 L 17.484375 -4.890625 C 17.035156 -3.222656 16.207031 -1.945312 15 -1.0625 C 13.789062 -0.175781 12.257812 0.265625 10.40625 0.265625 Z M 10.40625 0.265625 "/></g></g><g transform="translate(155.223894, 46.331182)"><g/></g><g transform="translate(161.686001, 46.331182)"><g><path d="M 9.578125 -18.8125 C 10.867188 -18.8125 11.976562 -18.578125 12.90625 -18.109375 C 13.832031 -17.648438 14.535156 -16.988281 15.015625 -16.125 C 15.503906 -15.269531 15.75 -14.257812 15.75 -13.09375 C 15.75 -11.925781 15.503906 -10.910156 15.015625 -10.046875 C 14.535156 -9.191406 13.832031 -8.53125 12.90625 -8.0625 C 11.976562 -7.59375 10.867188 -7.359375 9.578125 -7.359375 L 5.0625 -7.359375 L 5.0625 0 L 2.84375 0 L 2.84375 -18.8125 Z M 9.515625 -9.25 C 12.128906 -9.25 13.4375 -10.53125 13.4375 -13.09375 C 13.4375 -15.65625 12.128906 -16.9375 9.515625 -16.9375 L 5.0625 -16.9375 L 5.0625 -9.25 Z M 9.515625 -9.25 "/></g></g><g transform="translate(178.845342, 46.331182)"><g><path d="M 16.9375 0 L 14.5625 0 L 12.828125 -5.15625 L 4.8125 -5.15625 L 3.0625 0 L 0.75 0 L 7.3125 -18.8125 L 10.375 -18.8125 Z M 8.65625 -16.53125 L 5.4375 -7.015625 L 12.203125 -7.015625 L 8.984375 -16.53125 Z M 8.65625 -16.53125 "/></g></g><g transform="translate(196.532464, 46.331182)"><g><path d="M 8.9375 -18.8125 C 10.84375 -18.8125 12.476562 -18.46875 13.84375 -17.78125 C 15.207031 -17.101562 16.257812 -16.066406 17 -14.671875 C 17.75 -13.273438 18.125 -11.519531 18.125 -9.40625 C 18.125 -7.300781 17.75 -5.546875 17 -4.140625 C 16.257812 -2.742188 15.207031 -1.703125 13.84375 -1.015625 C 12.476562 -0.335938 10.84375 0 8.9375 0 L 2.84375 0 L 2.84375 -18.8125 Z M 8.71875 -1.875 C 10.28125 -1.875 11.578125 -2.117188 12.609375 -2.609375 C 13.640625 -3.097656 14.421875 -3.894531 14.953125 -5 C 15.484375 -6.113281 15.75 -7.582031 15.75 -9.40625 C 15.75 -11.238281 15.484375 -12.707031 14.953125 -13.8125 C 14.421875 -14.914062 13.640625 -15.710938 12.609375 -16.203125 C 11.578125 -16.691406 10.28125 -16.9375 8.71875 -16.9375 L 5.0625 -16.9375 L 5.0625 -1.875 Z M 8.71875 -1.875 "/></g></g></g><g fill="#ffffff" fill-opacity="1"><g transform="translate(84.385295, 66.290852)"><g><path d="M 0.890625 0 L 0.890625 -6.875 L 3.65625 -6.875 C 4.363281 -6.875 4.894531 -6.707031 5.25 -6.375 C 5.613281 -6.050781 5.796875 -5.601562 5.796875 -5.03125 C 5.796875 -4.613281 5.691406 -4.269531 5.484375 -4 C 5.273438 -3.726562 4.960938 -3.523438 4.546875 -3.390625 L 4.546875 -3.296875 C 4.753906 -3.203125 4.925781 -3.0625 5.0625 -2.875 C 5.195312 -2.6875 5.320312 -2.410156 5.4375 -2.046875 L 6.125 0 L 4.734375 0 L 4.0625 -2.046875 C 3.988281 -2.253906 3.910156 -2.414062 3.828125 -2.53125 C 3.742188 -2.644531 3.632812 -2.726562 3.5 -2.78125 C 3.363281 -2.832031 3.191406 -2.859375 2.984375 -2.859375 L 2.25 -2.859375 L 2.25 0 Z M 3.484375 -3.9375 C 4.140625 -3.9375 4.46875 -4.242188 4.46875 -4.859375 C 4.46875 -5.484375 4.140625 -5.796875 3.484375 -5.796875 L 2.25 -5.796875 L 2.25 -3.9375 Z M 3.484375 -3.9375 "/></g></g></g><g fill="#ffffff" fill-opacity="1"><g transform="translate(94.09402, 66.290852)"><g><path d="M 2.25 -3.015625 L 2.25 -1.140625 L 5.53125 -1.140625 L 5.53125 0 L 0.890625 0 L 0.890625 -6.875 L 5.453125 -6.875 L 5.453125 -5.734375 L 2.25 -5.734375 L 2.25 -4.125 L 5.046875 -4.125 L 5.046875 -3.015625 Z M 2.25 -3.015625 "/></g></g></g><g fill="#ffffff" fill-opacity="1"><g transform="translate(103.286177, 66.290852)"><g><path d="M 6.59375 0 L 5.171875 0 L 4.640625 -1.578125 L 2.015625 -1.578125 L 1.5 0 L 0.109375 0 L 2.484375 -6.875 L 4.21875 -6.875 Z M 3.265625 -5.4375 L 2.375 -2.71875 L 4.265625 -2.71875 L 3.390625 -5.4375 Z M 3.265625 -5.4375 "/></g></g></g><g fill="#ffffff" fill-opacity="1"><g transform="translate(113.267274, 66.290852)"><g><path d="M 2.25 -6.875 L 2.25 -1.140625 L 5.34375 -1.140625 L 5.34375 0 L 0.890625 0 L 0.890625 -6.875 Z M 2.25 -6.875 "/></g></g></g><g fill="#ffffff" fill-opacity="1"><g transform="translate(122.116618, 66.290852)"><g/></g></g><g fill="#ffffff" fill-opacity="1"><g transform="translate(127.67402, 66.290852)"><g><path d="M 5.515625 -6.875 L 5.515625 -5.734375 L 3.53125 -5.734375 L 3.53125 0 L 2.171875 0 L 2.171875 -5.734375 L 0.1875 -5.734375 L 0.1875 -6.875 Z M 5.515625 -6.875 "/></g></g></g><g fill="#ffffff" fill-opacity="1"><g transform="translate(136.654854, 66.290852)"><g><path d="M 2.25 0 L 0.890625 0 L 0.890625 -6.875 L 2.25 -6.875 Z M 2.25 0 "/></g></g></g><g fill="#ffffff" fill-opacity="1"><g transform="translate(143.090417, 66.290852)"><g><path d="M 2.140625 0 L 0.890625 0 L 0.890625 -6.875 L 2.671875 -6.875 L 4.40625 -1.8125 L 4.5 -1.8125 L 6.234375 -6.875 L 7.96875 -6.875 L 7.96875 0 L 6.6875 0 L 6.6875 -4.546875 L 6.5625 -4.5625 L 4.984375 0 L 3.84375 0 L 2.25 -4.5625 L 2.140625 -4.546875 Z M 2.140625 0 "/></g></g></g><g fill="#ffffff" fill-opacity="1"><g transform="translate(155.241099, 66.290852)"><g><path d="M 2.25 -3.015625 L 2.25 -1.140625 L 5.53125 -1.140625 L 5.53125 0 L 0.890625 0 L 0.890625 -6.875 L 5.453125 -6.875 L 5.453125 -5.734375 L 2.25 -5.734375 L 2.25 -4.125 L 5.046875 -4.125 L 5.046875 -3.015625 Z M 2.25 -3.015625 "/></g></g></g><g fill="#ffffff" fill-opacity="1"><g transform="translate(164.43326, 66.290852)"><g/></g></g><g fill="#ffffff" fill-opacity="1"><g transform="translate(169.990664, 66.290852)"><g><path d="M 3.359375 -6.875 C 4.472656 -6.875 5.320312 -6.582031 5.90625 -6 C 6.5 -5.425781 6.796875 -4.570312 6.796875 -3.4375 C 6.796875 -2.300781 6.5 -1.441406 5.90625 -0.859375 C 5.320312 -0.285156 4.472656 0 3.359375 0 L 0.890625 0 L 0.890625 -6.875 Z M 3.28125 -1.140625 C 3.988281 -1.140625 4.519531 -1.320312 4.875 -1.6875 C 5.226562 -2.050781 5.40625 -2.632812 5.40625 -3.4375 C 5.40625 -4.238281 5.226562 -4.820312 4.875 -5.1875 C 4.519531 -5.550781 3.988281 -5.734375 3.28125 -5.734375 L 2.25 -5.734375 L 2.25 -1.140625 Z M 3.28125 -1.140625 "/></g></g></g><g fill="#ffffff" fill-opacity="1"><g transform="translate(180.619821, 66.290852)"><g><path d="M 3.75 0.09375 C 3.113281 0.09375 2.554688 -0.03125 2.078125 -0.28125 C 1.597656 -0.539062 1.222656 -0.929688 0.953125 -1.453125 C 0.679688 -1.984375 0.546875 -2.644531 0.546875 -3.4375 C 0.546875 -4.21875 0.679688 -4.875 0.953125 -5.40625 C 1.222656 -5.9375 1.597656 -6.328125 2.078125 -6.578125 C 2.554688 -6.835938 3.113281 -6.96875 3.75 -6.96875 C 4.375 -6.96875 4.925781 -6.835938 5.40625 -6.578125 C 5.882812 -6.328125 6.257812 -5.9375 6.53125 -5.40625 C 6.800781 -4.875 6.9375 -4.21875 6.9375 -3.4375 C 6.9375 -2.644531 6.800781 -1.984375 6.53125 -1.453125 C 6.257812 -0.929688 5.882812 -0.539062 5.40625 -0.28125 C 4.925781 -0.03125 4.375 0.09375 3.75 0.09375 Z M 3.75 -1.078125 C 4.332031 -1.078125 4.773438 -1.265625 5.078125 -1.640625 C 5.390625 -2.015625 5.546875 -2.613281 5.546875 -3.4375 C 5.546875 -4.257812 5.390625 -4.859375 5.078125 -5.234375 C 4.773438 -5.609375 4.332031 -5.796875 3.75 -5.796875 C 3.15625 -5.796875 2.703125 -5.609375 2.390625 -5.234375 C 2.085938 -4.859375 1.9375 -4.257812 1.9375 -3.4375 C 1.9375 -2.613281 2.085938 -2.015625 2.390625 -1.640625 C 2.703125 -1.265625 3.15625 -1.078125 3.75 -1.078125 Z M 3.75 -1.078125 "/></g></g></g><g fill="#ffffff" fill-opacity="1"><g transform="translate(191.38986, 66.290852)"><g><path d="M 3.75 0.09375 C 3.125 0.09375 2.566406 -0.0351562 2.078125 -0.296875 C 1.597656 -0.554688 1.222656 -0.953125 0.953125 -1.484375 C 0.679688 -2.015625 0.546875 -2.664062 0.546875 -3.4375 C 0.546875 -4.207031 0.679688 -4.859375 0.953125 -5.390625 C 1.222656 -5.921875 1.597656 -6.316406 2.078125 -6.578125 C 2.566406 -6.835938 3.125 -6.96875 3.75 -6.96875 C 4.414062 -6.96875 4.976562 -6.835938 5.4375 -6.578125 C 5.90625 -6.316406 6.234375 -5.925781 6.421875 -5.40625 L 5.4375 -4.796875 L 5.3125 -4.796875 C 5.164062 -5.148438 4.96875 -5.40625 4.71875 -5.5625 C 4.46875 -5.71875 4.144531 -5.796875 3.75 -5.796875 C 3.1875 -5.796875 2.742188 -5.609375 2.421875 -5.234375 C 2.097656 -4.859375 1.9375 -4.257812 1.9375 -3.4375 C 1.9375 -2.613281 2.097656 -2.015625 2.421875 -1.640625 C 2.742188 -1.265625 3.1875 -1.078125 3.75 -1.078125 C 4.644531 -1.078125 5.191406 -1.507812 5.390625 -2.375 L 5.515625 -2.375 L 6.515625 -1.859375 C 6.328125 -1.203125 6.003906 -0.710938 5.546875 -0.390625 C 5.097656 -0.0664062 4.5 0.09375 3.75 0.09375 Z M 3.75 0.09375 "/></g></g></g><g fill="#ffffff" fill-opacity="1"><g transform="translate(201.413224, 66.290852)"><g><path d="M 3.046875 0.09375 C 2.566406 0.09375 2.140625 0.0351562 1.765625 -0.078125 C 1.398438 -0.191406 1.09375 -0.34375 0.84375 -0.53125 C 0.59375 -0.726562 0.40625 -0.941406 0.28125 -1.171875 L 1.03125 -2.078125 L 1.140625 -2.078125 C 1.347656 -1.773438 1.609375 -1.53125 1.921875 -1.34375 C 2.242188 -1.164062 2.617188 -1.078125 3.046875 -1.078125 C 3.410156 -1.078125 3.679688 -1.148438 3.859375 -1.296875 C 4.046875 -1.453125 4.140625 -1.664062 4.140625 -1.9375 C 4.140625 -2.101562 4.109375 -2.238281 4.046875 -2.34375 C 3.992188 -2.457031 3.894531 -2.550781 3.75 -2.625 C 3.613281 -2.707031 3.429688 -2.773438 3.203125 -2.828125 L 2.3125 -3.03125 C 1.695312 -3.175781 1.238281 -3.410156 0.9375 -3.734375 C 0.632812 -4.066406 0.484375 -4.492188 0.484375 -5.015625 C 0.484375 -5.398438 0.578125 -5.738281 0.765625 -6.03125 C 0.960938 -6.332031 1.25 -6.5625 1.625 -6.71875 C 2 -6.882812 2.441406 -6.96875 2.953125 -6.96875 C 3.484375 -6.96875 3.9375 -6.894531 4.3125 -6.75 C 4.695312 -6.613281 5.015625 -6.40625 5.265625 -6.125 L 4.59375 -5.203125 L 4.484375 -5.203125 C 4.285156 -5.398438 4.0625 -5.550781 3.8125 -5.65625 C 3.5625 -5.757812 3.273438 -5.8125 2.953125 -5.8125 C 2.578125 -5.8125 2.289062 -5.742188 2.09375 -5.609375 C 1.90625 -5.484375 1.8125 -5.300781 1.8125 -5.0625 C 1.8125 -4.84375 1.878906 -4.671875 2.015625 -4.546875 C 2.148438 -4.421875 2.382812 -4.320312 2.71875 -4.25 L 3.625 -4.0625 C 4.289062 -3.914062 4.773438 -3.675781 5.078125 -3.34375 C 5.378906 -3.007812 5.53125 -2.570312 5.53125 -2.03125 C 5.53125 -1.59375 5.4375 -1.210938 5.25 -0.890625 C 5.070312 -0.578125 4.796875 -0.332031 4.421875 -0.15625 C 4.046875 0.0078125 3.585938 0.09375 3.046875 0.09375 Z M 3.046875 0.09375 "/></g></g></g></svg>